<svg width="371" height="414" viewBox="0 0 371 414" fill="none" xmlns="http://www.w3.org/2000/svg">
<path d="M267.893 31.9798C306.164 15.3169 346.782 6.87096 370.368 2.79788L369.943 1.22291e-06C186.389 24.8355 90.5433 81.2125 42.8502 146.186C-4.84943 211.168 -4.13569 284.416 4.62633 342.372L5.39201 347.437L7.33136 342.69C25.1105 299.197 38.0665 272.973 50.7263 256.178C63.3114 239.482 75.6096 232.097 92.2342 226.365C102.205 222.928 113.146 223.805 122.997 227.843C138.319 234.124 150.427 247.921 146.91 263.366C140.713 290.586 115.559 307.745 88.1215 320.028C74.5691 326.095 60.5838 330.921 48.2568 335.174L47.9257 335.288C35.5841 339.547 24.8066 343.274 18.0245 347.116L16.2831 348.1L17.7911 349.414C57.8887 384.366 97.8573 405.58 135.825 411.569C173.843 417.565 209.754 408.277 241.589 382.439C273.384 356.634 301.049 314.376 322.797 254.517C344.549 194.646 360.413 117.08 368.55 20.5408L365.793 20.0088C357.629 46.5803 338.69 72.8762 316.424 96.4621C294.177 120.029 268.705 140.79 247.619 156.302C226.858 171.574 198.29 164.79 184.586 142.81C178.34 132.793 175.64 120.786 179.79 110.038C193.914 73.4521 229.574 48.6637 267.893 31.9798Z" fill="#2D746A"/>
</svg>
